<svg id="Layer_1" data-name="Layer 1" xmlns="http://www.w3.org/2000/svg" viewBox="0 0 480 480.58"><defs><style>.cls-1{fill:#fff;}.cls-2{fill:#ffc72b;}</style></defs><title>airline-logo</title><path d="M264.93,28.26q-6.68-.79-13.34-1.15a9.82,9.82,0,0,1-1-.6c-9-8-2.78-20.58-2.78-20.58l9.14-5.59a146.33,146.33,0,0,0-28.81.83L212.22,21.32c-3.65,5.11-6.3,7.47-8.11,8.54q-6.54,1.12-13,2.63a10.82,10.82,0,0,1-1.24-.29c-10.89-5.14-8.47-19-8.47-19l7.2-7.93A145.93,145.93,0,0,0,161.2,14.2L151.66,38c-2.1,6-4,9-5.43,10.53-3.94,1.92-7.83,4-11.65,6.13a9.62,9.62,0,0,1-1.3.06c-11.9-1.86-13.47-15.82-13.47-15.82l4.67-9.64A145.82,145.82,0,0,0,100.7,45.54L98.23,71.08c-0.31,6.18-1.24,9.6-2.17,11.49q-4.95,4.5-9.61,9.33a9.58,9.58,0,0,1-1.13.39C73.38,93.86,67.93,80.91,67.93,80.91L69.7,70.35a146.08,146.08,0,0,0-18.24,22.3l4.84,25.19c1.47,6.09,1.52,9.63,1.15,11.7q-3.41,5.64-6.51,11.54a9.31,9.31,0,0,1-1.05.76c-11,4.87-19.89-6-19.89-6l-1.28-10.63A145.89,145.89,0,0,0,17.5,151.72l11.74,22.81c3.11,5.42,4.17,8.8,4.4,10.89-1.16,4.31-2.15,8.63-3,13a12.34,12.34,0,0,1-.77,1c-9.2,7.76-20.79-.19-20.79-0.19l-4.22-9.84A145.85,145.85,0,0,0,1.55,218l17.69,18.59c4.48,4.29,6.45,7.23,7.27,9.17q0.16,6.7.76,13.36a10.52,10.52,0,0,1-.45,1.12c-6.64,10-20,5.67-20,5.67L0,257.62A146.21,146.21,0,0,0,4.91,286l22.22,12.85c5.63,2.92,8.33,5.22,9.65,6.86q2,6.28,4.41,12.4a9.93,9.93,0,0,1-.12,1.3c-3.54,11.51-17.59,11.08-17.59,11.08l-8.87-6a146.24,146.24,0,0,0,12.71,25.86l24.94,6.07c6.16,1.21,9.41,2.63,11.13,3.83q3.73,5.49,7.8,10.77a9.51,9.51,0,0,1,.24,1.2c-0.15,12-13.76,15.58-13.76,15.58l-10.2-3.26a146.12,146.12,0,0,0,19.48,21.23l25.63-1.19c6.12-.57,9.63-0.14,11.65.5q5.17,4.25,10.64,8.18a10.52,10.52,0,0,1,.56,1.08c3.25,11.59-8.81,18.82-8.81,18.82l-10.71-.25a146.51,146.51,0,0,0,24.67,14.89l24.27-8.37c5.91-2.35,9.43-2.88,11.52-2.79,1,0.43,2,.86,3,1.28q4.59,1.87,9.21,3.51a8,8,0,0,1,.91.95c6.38,10.21-3.15,20.54-3.15,20.54L156,465.7A145.87,145.87,0,0,0,183.88,473l20.93-14.85c4.88-3.81,8.07-5.34,10.11-5.89q6.68,0.79,13.36,1.16a10.39,10.39,0,0,1,1,.59c9,8,2.77,20.6,2.77,20.6l-9.15,5.57a146.37,146.37,0,0,0,28.81-.81l15.89-20.15c3.65-5.1,6.31-7.45,8.12-8.52,4.37-.75,8.7-1.61,13-2.63a10.78,10.78,0,0,1,1.22.3c10.89,5.14,8.46,19,8.46,19l-7.21,7.93a146.29,146.29,0,0,0,27.41-8.89l9.58-23.81c2.09-6,4-9,5.44-10.52q5.92-2.89,11.65-6.12a9.44,9.44,0,0,1,1.29-.07c11.9,1.87,13.46,15.83,13.46,15.83l-4.68,9.63a146.14,146.14,0,0,0,23.8-16.25l2.48-25.54c0.31-6.18,1.25-9.59,2.18-11.49q4.95-4.51,9.62-9.34a9.79,9.79,0,0,1,1.13-.39c11.94-1.55,17.38,11.4,17.38,11.4l-1.78,10.56a145.8,145.8,0,0,0,18.26-22.28l-4.81-25.21c-1.46-6.08-1.51-9.63-1.14-11.7q3.42-5.63,6.51-11.54a10,10,0,0,1,1.05-.75c11-4.86,19.88,6,19.88,6l1.27,10.63A146.24,146.24,0,0,0,462.45,329l-11.72-22.83c-3.11-5.43-4.16-8.82-4.39-10.91,1.16-4.31,2.16-8.62,3-12.94a11.41,11.41,0,0,1,.77-1c9.21-7.77,20.78.2,20.78,0.2l4.21,9.85a145.81,145.81,0,0,0,3.31-28.62l-17.68-18.6c-4.49-4.29-6.45-7.24-7.27-9.18q-0.17-6.85-.77-13.64a9.94,9.94,0,0,1,.45-1.13c6.63-10.05,20-5.69,20-5.69l6.83,8.25a145.9,145.9,0,0,0-4.93-28.38l-22.22-12.84c-5.65-2.92-8.35-5.23-9.65-6.86q-2-6.26-4.42-12.38a9.8,9.8,0,0,1,.12-1.3c3.53-11.51,17.58-11.09,17.58-11.09l8.88,6a146.24,146.24,0,0,0-12.73-25.85L427.68,124c-6.18-1.2-9.42-2.64-11.15-3.83q-3.72-5.49-7.79-10.74a10.78,10.78,0,0,1-.23-1.22c0.14-12,13.74-15.59,13.74-15.59l10.21,3.25A146.29,146.29,0,0,0,413,74.67l-25.63,1.2c-6.13.58-9.65,0.15-11.66-.49-3.44-2.83-7-5.54-10.62-8.17a10.74,10.74,0,0,1-.57-1.09c-3.25-11.59,8.8-18.83,8.8-18.83L384,47.55a146,146,0,0,0-24.69-14.87L335,41.05c-5.93,2.36-9.45,2.9-11.54,2.79-1-.41-1.91-0.81-2.87-1.21q-4.66-1.9-9.35-3.55a10.07,10.07,0,0,1-.92-1c-6.4-10.2,3.13-20.54,3.13-20.54l10.35-2.78A146.39,146.39,0,0,0,296,7.49L275.05,22.36c-4.89,3.83-8.08,5.35-10.12,5.89"/><path class="cls-1" d="M239.78,442.5h-2.56a190.83,190.83,0,0,1-34.47-3.14,78,78,0,0,1-14.13-3.89l-1.22-.45-1.24-.46c-0.5-5.7-1.46-21.15-2.46-37.35-1.51-24.36-3.38-54.68-5.4-81.06-1-13-1.94-23.91-2.8-32.39a105.83,105.83,0,0,0-3.4-16.38c-0.34-1.3-.69-2.6-1-3.9-0.52-2.05-.91-3.72-1.21-5.24-1.58-7.81-1.55-15.43.09-24.71,0.21-1.21.45-2.42,0.71-3.7,0.29-1.47.59-3,.86-4.51,0.34-2,.56-3.69.68-5.3,0.09-1.13.12-2.32,0.1-3.64a249.77,249.77,0,0,1,3.74-25.07,7,7,0,0,1,6.8-5.55H297.15a7,7,0,0,1,6.8,5.55,250.57,250.57,0,0,1,3.74,25.08c0,1.31,0,2.5.1,3.63,0.13,1.61.34,3.29,0.68,5.29,0.26,1.54.56,3.05,0.86,4.52,0.26,1.28.5,2.5,0.71,3.71,1.65,9.28,1.68,16.9.09,24.71-0.31,1.52-.69,3.19-1.21,5.24-0.33,1.3-.68,2.6-1,3.9a105.85,105.85,0,0,0-3.41,16.38c-0.86,8.49-1.81,19.39-2.8,32.39-2,26.39-3.89,56.71-5.4,81.07-1,16.2-2,31.65-2.46,37.35l-1.24.46-1.21.45a78,78,0,0,1-14.13,3.89,190.86,190.86,0,0,1-34.47,3.14h-3Z"/><path class="cls-2" d="M175,235.56a76.26,76.26,0,0,0,.53,21.53c0.29,1.43.66,3,1.15,5,0.32,1.27.66,2.53,1,3.79v0.05a110.14,110.14,0,0,1,3.56,17.26c0.87,8.54,1.82,19.48,2.81,32.54,2,26.41,3.89,56.72,5.4,81.09v0.06c0.84,13.54,1.64,26.44,2.17,33.63a75.79,75.79,0,0,0,12.26,3.26,185.06,185.06,0,0,0,33.43,3h5.43a185.09,185.09,0,0,0,33.44-3,75.75,75.75,0,0,0,12.26-3.26c0.53-7.19,1.33-20.09,2.16-33.62,1.51-24.37,3.39-54.71,5.41-81.15,1-13.05,1.94-24,2.81-32.54a110.13,110.13,0,0,1,3.58-17.3c0.34-1.27.67-2.53,1-3.8,0.5-2,.86-3.54,1.15-5a76.25,76.25,0,0,0,.53-21.53H175Z"/><path class="cls-1" d="M207.42,245.12l0,0.87-0.06.87c-1.88,27.79,1.19,47.61,4.2,64a4.64,4.64,0,0,0,4.4,3.8,4.72,4.72,0,0,0,1-.07,4.64,4.64,0,0,0,3.72-5.4c-3.05-16.57-5.88-35-4.07-61.71l0.07-1.08c0-.14,0-0.28,0-0.42l0-1.07c0-2,.1-7.12.21-8.84,0-.06,0-0.45,0-0.51h-9.28c-0.12,2-.27,7.33-0.22,9.56"/><path class="cls-1" d="M400.41,179.42l-12.21-39.7a2.89,2.89,0,0,0-2.85-2.43H102.91a2.89,2.89,0,0,0-2.8,2.19l-15.63,39.7a2.91,2.91,0,0,0-.09.7,7.29,7.29,0,0,0,7.29,7.29H393.16a7.29,7.29,0,0,0,7.29-7.29,2.88,2.88,0,0,0,0-.46"/><path d="M102.91,140.19l-15.63,39.7a4.41,4.41,0,0,0,4.39,4.39H393.16a4.41,4.41,0,0,0,4.4-4.39l-12.21-39.7H102.91Z"/><path class="cls-1" d="M102,89.07a4.41,4.41,0,0,0-4.4,4.4l-14.66,59.1a4.41,4.41,0,0,0,4.4,4.4H397.49a4.41,4.41,0,0,0,4.39-4.4l-8.15-59.1a4.41,4.41,0,0,0-4.4-4.4H102Z"/><path class="cls-1" d="M100.43,159.92h10.23c4.11,0,6.76,1.83,6.76,5.23,0,2.62-1.58,3.93-3.71,4.57,2.4,0.58,4.6,1.92,4.6,4.84,0,3.9-2.77,6.05-7.91,6.05h-10V176.9H102V163.63h-1.52v-3.71Zm9,8.4a2.24,2.24,0,0,0,2.5-2.22,2.21,2.21,0,0,0-2.44-2.25h-2.16v4.47h2.1Zm0.42,8.37c1.8,0,2.83-1,2.83-2.53s-1.07-2.49-2.83-2.49h-2.52v5h2.52Z"/><path class="cls-1" d="M140,173.82h-2.71v3.07H139v3.71h-8.74V176.9h1.52V163.63h-1.52v-3.71h9.89c5.26,0,8.19,2.8,8.19,7a6.35,6.35,0,0,1-3.41,5.6l2.16,4.35H149v3.71h-6ZM139.83,170a2.75,2.75,0,0,0,3.07-3.07c0-1.83-1.16-2.8-3.07-2.8h-2.49V170h2.49Z"/><polygon class="cls-1" points="173.39 164.09 168.76 164.09 168.76 168.32 173.82 168.32 173.82 172.06 168.76 172.06 168.76 176.41 173.82 176.41 173.82 173.4 178.17 173.4 178.17 180.61 161.7 180.61 161.7 176.9 163.22 176.9 163.22 163.63 161.7 163.63 161.7 159.92 177.74 159.92 177.74 166.95 173.39 166.95 173.39 164.09"/><polygon class="cls-1" points="210 159.92 218.22 159.92 218.22 163.63 216.7 163.63 211.92 180.61 207.75 180.61 203.76 169.72 199.75 180.61 195.58 180.61 190.77 163.63 189.31 163.63 189.31 159.92 197.68 159.92 197.68 163.63 196.09 163.63 198.38 171.82 202.73 159.92 205.04 159.92 209.39 171.91 211.68 163.63 210 163.63 210 159.92"/><polygon class="cls-1" points="228.25 159.92 236.83 159.92 236.83 163.63 235.31 163.63 235.31 176.9 236.83 176.9 236.83 180.61 228.25 180.61 228.25 176.9 229.77 176.9 229.77 163.63 228.25 163.63 228.25 159.92"/><polygon class="cls-1" points="263.58 159.92 271.62 159.92 271.62 163.63 270.1 163.63 270.1 180.61 265.59 180.61 256.46 167.98 256.46 176.9 258.23 176.9 258.23 180.61 250.19 180.61 250.19 176.9 251.71 176.9 251.71 163.63 250.19 163.63 250.19 159.92 257.28 159.92 265.44 171.21 265.44 163.63 263.58 163.63 263.58 159.92"/><path class="cls-1" d="M299.16,167.13a4,4,0,0,0-4.26-3.16c-3.44,0-5.57,2.71-5.57,6.42,0,3.47,2,6.3,5.81,6.3a5.69,5.69,0,0,0,3.74-1.16v-2.22h-4.11v-3.93h9v11.23h-4.14v-1.46c-0.94.91-2.55,1.73-5.36,1.73a10.32,10.32,0,0,1-10.65-10.5,10.63,10.63,0,0,1,10.86-10.71c2.62,0,4.29.76,5.08,2v-1.74h3.59v7.21h-4Z"/><path class="cls-1" d="M341.74,167.13a4.07,4.07,0,0,0-4.35-3.14c-3.32,0-5.3,2.68-5.3,6.27s2.1,6.36,5.39,6.36a5.32,5.32,0,0,0,4.66-3.11l4,2.43c-2,3.44-4.84,4.93-9,4.93-6,0-10.77-4-10.77-10.5a10.48,10.48,0,0,1,10.47-10.71c2.59,0,4.56.76,5.35,1.95v-1.71h3.62v7.21h-4.08Z"/><path class="cls-1" d="M355.9,170.26c0-6.24,5-10.59,11.11-10.59s11.11,4.35,11.11,10.59-5,10.62-11.11,10.62-11.11-4.38-11.11-10.62m16.43,0c0-3.5-1.95-6.12-5.33-6.12s-5.33,2.62-5.33,6.12,1.95,6.15,5.33,6.15,5.33-2.65,5.33-6.15"/><path class="cls-1" d="M382.88,177.93a3,3,0,1,1,3,3,3,3,0,0,1-3-3"/><path d="M145.62,141a4.89,4.89,0,0,1,1.52,1,2.26,2.26,0,0,1,.73,1.73v2.47h-18.1v-2.23a3.07,3.07,0,0,1,.34-1.61,3.27,3.27,0,0,1,.78-0.9c0.29-.22.57-0.45,0.83-0.68a1.14,1.14,0,0,0,.39-0.9,26.7,26.7,0,0,1-.69-2.78,15.91,15.91,0,0,0-.39-1.76,1.87,1.87,0,0,0-.54-0.93,1.61,1.61,0,0,0-1-.28h-9a4.63,4.63,0,0,0-1.27.13,0.77,0.77,0,0,0-.49.68,5.24,5.24,0,0,0-.15,1.11,10.39,10.39,0,0,1-.25,1.67q-0.19,1-.39,2.16a1.38,1.38,0,0,0,.34,1l0.69,0.71a8.21,8.21,0,0,1,.69.87,2.62,2.62,0,0,1,.34,1.48v2.23H102.16V143.7a2,2,0,0,1,.49-1.45,5.43,5.43,0,0,1,1.08-.9c0.39-.25.8-0.5,1.22-0.74a2.36,2.36,0,0,0,.93-0.93l5.48-16.33q1-3,2-6t1.81-5.26l1.27-3.77q0.49-1.45.49-1.52v-0.31a0.94,0.94,0,0,0-.44-0.81l-1-.71a4.53,4.53,0,0,1-1-1,3.22,3.22,0,0,1-.44-1.86V99.9q5.19,0,8.47,0a40.5,40.5,0,0,1,5.23.22,7.27,7.27,0,0,1,2.89.83,3.69,3.69,0,0,1,1.42,1.76q0.1,0.25.64,1.95t1.42,4.33q0.88,2.63,2,5.94t2.15,6.71q2.54,8,5.87,18.07a1.66,1.66,0,0,0,.59.77,6.79,6.79,0,0,0,.88.53M128.68,128.3c0.85,0,1.21-.23,1.08-0.68l-2.35-8.54q-0.49-1.61-.88-3.16t-0.73-2.78q-0.34-1.24-.54-2c-0.13-.51-0.19-0.79-0.19-0.84h-0.2s-0.1.46-.29,1.27-0.46,1.82-.78,3.06l-1.08,4.05q-0.59,2.2-1.13,4.11t-0.88,3.28a13.48,13.48,0,0,0-.34,1.55,0.45,0.45,0,0,0,.15.56,4,4,0,0,0,1.32.12h6.85Z"/><path d="M170.46,139.43a1.21,1.21,0,0,0,.24.87,2.79,2.79,0,0,0,.73.49,7,7,0,0,1,1.57,1.05,2.2,2.2,0,0,1,.78,1.73v2.6h-18.2v-2.6a2.19,2.19,0,0,1,.78-1.73,6.92,6.92,0,0,1,1.57-1.05,3.62,3.62,0,0,0,.64-0.49,1.46,1.46,0,0,0,.34-0.74V106.7a1.09,1.09,0,0,0-.3-0.87,6.58,6.58,0,0,0-.69-0.49,6.87,6.87,0,0,1-1.57-1.05,2.19,2.19,0,0,1-.78-1.73V99.9h18.2v2.66a2.19,2.19,0,0,1-.78,1.73,6.94,6.94,0,0,1-1.57,1.05,2.87,2.87,0,0,0-.73.49,1.22,1.22,0,0,0-.24.87v32.73Z"/><path d="M219.48,140.3a4,4,0,0,1,1.37.9,2.22,2.22,0,0,1,.59,1.64v3.34h-9.49a6.14,6.14,0,0,1-3.82-1,2.91,2.91,0,0,1-1.27-2.35V129.1a3.15,3.15,0,0,0-1.13-2.66q-1.12-.87-4.16-0.87h-4.11c-0.85,0-1.27.29-1.27,0.87v13a1.21,1.21,0,0,0,.24.87,2,2,0,0,0,.73.43,7,7,0,0,1,1.57,1.05,2.2,2.2,0,0,1,.78,1.73v2.66H181.41v-2.66a2.19,2.19,0,0,1,.78-1.73,7,7,0,0,1,1.57-1.05,3.14,3.14,0,0,0,.68-0.43,1,1,0,0,0,.29-0.8V105.9a0.51,0.51,0,0,0-.49-0.43,7.73,7.73,0,0,1-1.71-1,2.23,2.23,0,0,1-.93-1.92V99.9h20.65a26.38,26.38,0,0,1,6.61.77,17.4,17.4,0,0,1,5.09,2.13,10,10,0,0,1,3.23,3.25,8,8,0,0,1,1.13,4.18v5.69a7.5,7.5,0,0,1-.88,3.62,6.67,6.67,0,0,1-2.84,2.69q-1.18.62,0.1,1.24a5.29,5.29,0,0,1,2.94,2.91,11.94,11.94,0,0,1,.68,4.15V139a1,1,0,0,0,.34.84,3,3,0,0,0,.83.46m-12.33-30.5a3.17,3.17,0,0,0-1.71-2.91,8.19,8.19,0,0,0-4.16-1h-3.92c-0.78,0-1.17.29-1.17,0.87V119a0.7,0.7,0,0,0,.34.68,1.53,1.53,0,0,0,.73.18h5q3,0,4-1a4.13,4.13,0,0,0,.93-2.88V109.8Z"/><path d="M264.48,137.27v7.3a1.31,1.31,0,0,1-.78,1.18,3.21,3.21,0,0,1-1.57.43H229.05v-2.6a3.19,3.19,0,0,1,.59-2.07,3.25,3.25,0,0,1,1.57-1,2.3,2.3,0,0,0,.88-0.43,0.92,0.92,0,0,0,.39-0.74V106.58a1,1,0,0,0-.29-0.81,3.27,3.27,0,0,0-.68-0.43,6.78,6.78,0,0,1-1.57-1.05,2.19,2.19,0,0,1-.78-1.73V99.9h18.11v2.66a2.2,2.2,0,0,1-.78,1.73,6.87,6.87,0,0,1-1.57,1.05,2.07,2.07,0,0,0-.73.43,1.21,1.21,0,0,0-.24.87v32.92c0,0.58.45,0.87,1.37,0.87H253a2.55,2.55,0,0,0,2.05-.8,9.06,9.06,0,0,1,1.66-1.49,5.52,5.52,0,0,1,3.33-.87h4.4Z"/><path d="M287.46,139.43a1.21,1.21,0,0,0,.24.87,2.8,2.8,0,0,0,.74.49,7,7,0,0,1,1.56,1.05,2.2,2.2,0,0,1,.78,1.73v2.6h-18.2v-2.6a2.2,2.2,0,0,1,.78-1.73,6.9,6.9,0,0,1,1.57-1.05,3.6,3.6,0,0,0,.64-0.49,1.47,1.47,0,0,0,.34-0.74V106.7a1.09,1.09,0,0,0-.3-0.87,6.67,6.67,0,0,0-.69-0.49,6.85,6.85,0,0,1-1.57-1.05,2.19,2.19,0,0,1-.78-1.73V99.9h18.2v2.66a2.19,2.19,0,0,1-.78,1.73,7,7,0,0,1-1.56,1.05,2.88,2.88,0,0,0-.74.49,1.22,1.22,0,0,0-.24.87v32.73Z"/><path d="M340,99.9v2.6a6.29,6.29,0,0,1-.2,1.61,2.24,2.24,0,0,1-1.27,1.3,5,5,0,0,0-.63.46,1,1,0,0,0-.25.77v38.11a1.27,1.27,0,0,1-.49,1,2.47,2.47,0,0,1-1.57.4h-5.67a2.83,2.83,0,0,1-2.1-.74,8.87,8.87,0,0,1-1.32-1.73q-0.2-.37-1.27-2.1t-2.5-4.12q-1.42-2.38-3.08-5.07t-3-5q-1.37-2.29-2.3-3.8T313.38,122a0.14,0.14,0,0,0-.1-0.15c-0.07,0-.1.07-0.1,0.28v17.26a1.09,1.09,0,0,0,.29.87,6,6,0,0,0,.68.5,7,7,0,0,1,1.57,1.05,2.2,2.2,0,0,1,.78,1.73v2.6H298.41v-2.6a2.34,2.34,0,0,1,.69-1.61,6.32,6.32,0,0,1,1.76-1.3,3.42,3.42,0,0,0,.68-0.53,1.05,1.05,0,0,0,.2-0.71V106.14a4.75,4.75,0,0,1-1.66-.62,3.47,3.47,0,0,1-1.17-1.05,2.88,2.88,0,0,1-.49-1.73V99.9h8.52a10.61,10.61,0,0,1,2.54.34,3.34,3.34,0,0,1,2.15,1.76q0.1,0.13,1.08,1.67t2.4,3.9q1.41,2.35,3.13,5.14l3.28,5.35q1.56,2.57,2.74,4.58t1.57,2.82c0.06,0.12.13,0.13,0.19,0a0.62,0.62,0,0,0,.1-0.34v-18.5a1.09,1.09,0,0,0-.29-0.87,6.67,6.67,0,0,0-.68-0.49,6.86,6.86,0,0,1-1.57-1.05,2.19,2.19,0,0,1-.78-1.73V99.9H340Z"/><path d="M362.79,106.18a0.76,0.76,0,0,0-.39.59v11.69c0,0.58.45,0.87,1.37,0.87h11.35a2.79,2.79,0,0,1,1,.22,0.74,0.74,0,0,1,.54.71v4.33q0,0.87-1.47.87H363.77c-0.92,0-1.37.29-1.37,0.87v13.12a0.75,0.75,0,0,0,.49.68,2.16,2.16,0,0,0,1,.25h8.51a1.22,1.22,0,0,0,1.27-.74,3,3,0,0,1,1.91-1.86,11.4,11.4,0,0,1,3.67-.49h3.43v7.36a1.28,1.28,0,0,1-.74,1.11,3.52,3.52,0,0,1-1.81.43H347.62V143.7a3.4,3.4,0,0,1,.54-2.07,3,3,0,0,1,1.52-1,2,2,0,0,0,.88-0.5,1.1,1.1,0,0,0,.39-0.81V106.83a1.57,1.57,0,0,0-1.37-1.42,3.16,3.16,0,0,1-1.42-1,2.89,2.89,0,0,1-.54-1.89V99.9h31.91a4.58,4.58,0,0,1,2.1.53,1.49,1.49,0,0,1,1,1v7h-3.92a7,7,0,0,1-3.23-.62,5.85,5.85,0,0,1-1.66-1.18,2.33,2.33,0,0,0-2.06-.74h-8.12a1.48,1.48,0,0,0-.88.28"/></svg>